# xmcd
#
# Track frame offsets: 
#        150
#        14791
#        37778
#        54832
#        75826
#        98849
#        119182
#        135492
#        154958
#        174722
#        194595
#        218898
#        239304
#        254831
#        268920
#        286933
#
# Disc length: 4075 seconds
#
# Revision: 1
# Processed by: cddbd v1.5.2PL0 Copyright (c) Steve Scherf et al.
# Submitted via: ExactAudioCopy v1.0b4
#
DISCID=eb0fe910
DTITLE=Norman Baker Band - We See Us Later
DYEAR=2017
DGENRE=Blues
TTITLE0=Only I Got What The Other Guys Want
TTITLE1=Where Does Acting Start
TTITLE2=Details
TTITLE3=Thanks But No Thanks
TTITLE4=Nobody Knows Where The Time Goes
TTITLE5=Railway To Roam
TTITLE6=Cheating Love
TTITLE7=I Believe In You
TTITLE8=Nothing Changes
TTITLE9=Time And Tide
TTITLE10=I Don't Want A Lover
TTITLE11=Thursday Off
TTITLE12=Bottom Of The Slide
TTITLE13=Hard To Be Somebody
TTITLE14=If I Could Turn Away
TTITLE15=Love Me Tonight
EXTD=
EXTT0=
EXTT1=
EXTT2=
EXTT3=
EXTT4=
EXTT5=
EXTT6=
EXTT7=
EXTT8=
EXTT9=
EXTT10=
EXTT11=
EXTT12=
EXTT13=
EXTT14=
EXTT15=
PLAYORDER=
